<svg id="enQSofJaBub1" xmlns="http://www.w3.org/2000/svg" xmlns:xlink="http://www.w3.org/1999/xlink"
    viewBox="0 0 640 480" shape-rendering="geometricPrecision" text-rendering="geometricPrecision">
    <polygon
        points="0,-156.148244 45.890817,-63.163291 148.505805,-48.252461 74.252902,24.12623 91.781635,126.326583 0,78.074122 -91.781635,126.326583 -74.252902,24.12623 -148.505805,-48.252461 -45.890817,-63.163291 0,-156.148244"
        transform="matrix(-.730156 0.761448-.648044-.621412 294.525571 199.163718)" fill="gray" stroke-width="0" />
    <polygon
        points="0,-22.951795 6.745363,-9.284196 21.828454,-7.092495 10.914227,3.546247 13.490727,18.568392 0,11.475898 -13.490727,18.568392 -10.914227,3.546247 -21.828454,-7.092495 -6.745363,-9.284196 0,-22.951795"
        transform="matrix(-.672673 0.73994-.73994-.672673 393.335478 216.146671)" fill="#e70909" stroke-width="0" />
    <polygon
        points="0,-17.467289 5.133507,-7.065667 16.612379,-5.397689 8.30619,2.698845 10.267015,14.131334 0,8.733644 -10.267015,14.131334 -8.30619,2.698845 -16.612379,-5.397689 -5.133507,-7.065667 0,-17.467289"
        transform="matrix(-.707107 0.707107-.707107-.707107 365.545192 101.897716)" fill="#e70909" stroke-width="0" />
    <polygon
        points="0,-9.002434 2.645749,-3.641561 8.561824,-2.781905 4.280912,1.390953 5.291498,7.283122 0,4.501217 -5.291498,7.283122 -4.280912,1.390953 -8.561824,-2.781905 -2.645749,-3.641561 0,-9.002434"
        transform="matrix(-.514496 0.857493-.857493-.514496 314.596334 77.19524)" fill="#e70909" stroke-width="0" />
    <polygon
        points="0,-11.133255 3.271982,-4.503496 10.588355,-3.440365 5.294177,1.720183 6.543963,9.006993 0,5.566628 -6.543963,9.006993 -5.294177,1.720183 -10.588355,-3.440365 -3.271982,-4.503496 0,-11.133255"
        transform="matrix(-.5547 0.83205-.83205-.5547 441.196527 114.248955)" fill="#e70909" stroke-width="0" />
    <polygon
        points="0,-7.719524 2.268711,-3.122613 7.341704,-2.385464 3.670852,1.192732 4.537422,6.245226 0,3.859762 -4.537422,6.245226 -3.670852,1.192732 -7.341704,-2.385464 -2.268711,-3.122613 0,-7.719524"
        transform="matrix(0 1-1 0 468.986813 108.073335)" fill="#e70909" stroke-width="0" />
    <polygon
        points="0,-18.070942 5.310917,-7.30985 17.186488,-5.584228 8.593244,2.792114 10.621833,14.6197 0,9.035471 -10.621833,14.6197 -8.593244,2.792114 -17.186488,-5.584228 -5.310917,-7.30985 0,-18.070942"
        transform="matrix(-.939793 0.341743-.341743-.939793 452.00386 146.670955)" fill="#e70909" stroke-width="0" />
    <polygon
        points="0,-23.967848 7.043974,-9.695198 22.794778,-7.406472 11.397389,3.703236 14.087947,19.390396 0,11.983924 -14.087947,19.390396 -11.397389,3.703236 -22.794778,-7.406472 -7.043974,-9.695198 0,-23.967848"
        transform="matrix(-.966235 0.257663-.257663-.966235 297.613381 305.693149)" fill="#e70909" stroke-width="0" />
    <polygon
        points="0,-12.447359 3.658187,-5.035062 11.838142,-3.846445 5.919071,1.923223 7.316374,10.070125 0,6.223679 -7.316374,10.070125 -5.919071,1.923223 -11.838142,-3.846445 -3.658187,-5.035062 0,-12.447359"
        transform="matrix(-.992278 0.124035-.124035-.992278 353.193954 318.044387)" fill="#e70909" stroke-width="0" />
    <polygon
        points="0,-11.758028 3.455598,-4.756222 11.182549,-3.63343 5.591275,1.816715 6.911195,9.512444 0,5.879014 -6.911195,9.512444 -5.591275,1.816715 -11.182549,-3.63343 -3.455598,-4.756222 0,-11.758028"
        transform="matrix(-.919145 0.393919-.393919-.919145 365.545192 345.834674)" fill="#e70909" stroke-width="0" />
    <polygon
        points="0,-29.334191 8.621102,-11.86593 27.898474,-9.064764 13.949237,4.532382 17.242205,23.731859 0,14.667096 -17.242205,23.731859 -13.949237,4.532382 -27.898474,-9.064764 -8.621102,-11.86593 0,-29.334191"
        transform="matrix(-1 0 0-1 297.613381 352.010293)" fill="#e70909" stroke-width="0" />
    <polygon
        points="0,-7.719524 2.268711,-3.122613 7.341704,-2.385464 3.670852,1.192732 4.537422,6.245226 0,3.859762 -4.537422,6.245226 -3.670852,1.192732 -7.341704,-2.385464 -2.268711,-3.122613 0,-7.719524"
        transform="matrix(-1 0 0-1 255.927952 338.11515)" fill="#e70909" stroke-width="0" />
    <polygon
        points="0,-16.118839 4.737208,-6.520207 15.329927,-4.980995 7.664964,2.490498 9.474416,13.040415 0,8.05942 -9.474416,13.040415 -7.664964,2.490498 -15.329927,-4.980995 -4.737208,-6.520207 0,-16.118839"
        transform="matrix(-.957826-.287348 0.287348-.957826 201.891284 299.51753)" fill="#e70909" stroke-width="0" />
    <polygon
        points="0,-36.141884 10.621833,-14.619699 34.372974,-11.168456 17.186487,5.584228 21.243666,29.239398 0,18.070942 -21.243666,29.239398 -17.186487,5.584228 -34.372974,-11.168456 -10.621833,-14.619699 0,-36.141884"
        transform="matrix(-.939793-.341743 0.341743-.939793 184.90833 220.778385)" fill="#e70909" stroke-width="0" />
    <polygon
        points="0,-12.351238 3.629938,-4.996181 11.746725,-3.816742 5.873363,1.908371 7.259876,9.992361 0,6.175619 -7.259876,9.992361 -5.873363,1.908371 -11.746725,-3.816742 -3.629938,-4.996181 0,-12.351238"
        transform="matrix(-1 0 0-1 118.520425 192.988099)" fill="#e70909" stroke-width="0" />
    <polygon
        points="0,-9.263429 2.722453,-3.747136 8.810045,-2.862557 4.405022,1.431278 5.444907,7.494271 0,4.631715 -5.444907,7.494271 -4.405022,1.431278 -8.810045,-2.862557 -2.722453,-3.747136 0,-9.263429"
        transform="matrix(-1 0 0-1 116.97652 152.846574)" fill="#e70909" stroke-width="0" />
    <polygon
        points="0,-43.504158 12.785551,-17.597802 41.374913,-13.443524 20.687456,6.721762 25.571102,35.195603 0,21.752079 -25.571102,35.195603 -20.687456,6.721762 -41.374913,-13.443524 -12.785551,-17.597802 0,-43.504158"
        transform="matrix(-.887217 0.461353-.461353-.887217 127.783854 109.61724)" fill="#e70909" stroke-width="0" />
    <polygon
        points="0,-14.234099 4.183297,-5.757814 13.537432,-4.398578 6.768716,2.199289 8.366593,11.515628 0,7.117049 -8.366593,11.515628 -6.768716,2.199289 -13.537432,-4.398578 -4.183297,-5.757814 0,-14.234099"
        transform="matrix(-.759257 0.650791-.650791-.759257 191.08395 112.70505)" fill="#e70909" stroke-width="0" />
    <polygon
        points="0,-9.391206 2.760006,-3.798823 8.931568,-2.902042 4.465784,1.451021 5.520013,7.597646 0,4.695603 -5.520013,7.597646 -4.465784,1.451021 -8.931568,-2.902042 -2.760006,-3.798823 0,-9.391206"
        transform="matrix(-.986394 0.164399-.164399-.986394 226.593761 103.441621)" fill="#e70909" stroke-width="0" />
    <polygon
        points="0,-14.2341 4.183297,-5.757814 13.537433,-4.398579 6.768717,2.199289 8.366594,11.515629 0,7.11705 -8.366594,11.515629 -6.768717,2.199289 -13.537433,-4.398579 -4.183297,-5.757814 0,-14.2341"
        transform="matrix(-.976187 0.21693-.21693-.976187 214.242522 71.01962)" fill="#e70909" stroke-width="0" />
    <polygon
        points="0,-9.391206 2.760006,-3.798822 8.931567,-2.902042 4.465784,1.451021 5.520012,7.597645 0,4.695603 -5.520012,7.597645 -4.465784,1.451021 -8.931567,-2.902042 -2.760006,-3.798822 0,-9.391206"
        transform="matrix(-.986394 0.164399-.164399-.986394 184.908331 143.583146)" fill="#e70909" stroke-width="0" />
    <polygon
        points="0,-26.246381 7.713618,-10.616884 24.961791,-8.110578 12.480896,4.055289 15.427235,21.233768 0,13.12319 -15.427235,21.233768 -12.480896,4.055289 -24.961791,-8.110578 -7.713618,-10.616884 0,-26.246381"
        transform="matrix(-.470588 0.882353-.882353-.470588 428.845289 333.483436)" fill="#e70909" stroke-width="0" />
    <polygon
        points="0,-13.809104 4.058394,-5.5859 13.133238,-4.267248 6.566619,2.133624 8.116788,11.1718 0,6.904552 -8.116788,11.1718 -6.566619,2.133624 -13.133238,-4.267248 -4.058394,-5.5859 0,-13.809104"
        transform="matrix(-.447214 0.894427-.894427-.447214 461.26729 356.642007)" fill="#e70909" stroke-width="0" />
    <polygon
        points="0,-6.904552 2.029197,-2.79295 6.566619,-2.133624 3.283309,1.066812 4.058394,5.5859 0,3.452276 -4.058394,5.5859 -3.283309,1.066812 -6.566619,-2.133624 -2.029197,-2.79295 0,-6.904552"
        transform="matrix(-.894427 0.447214-.447214-.894427 481.986813 372.712771)" fill="#e70909" stroke-width="0" />
    <polygon
        points="0,-5.566628 1.635991,-2.251748 5.294178,-1.720183 2.647089,0.860091 3.271982,4.503496 0,2.783314 -3.271982,4.503496 -2.647089,0.860091 -5.294178,-1.720183 -1.635991,-2.251748 0,-5.566628"
        transform="translate(497.057575 386.607912)" fill="#e70909" stroke-width="0" />
    <polygon
        points="0,-5.566628 1.635991,-2.251748 5.294178,-1.720183 2.647089,0.860091 3.271982,4.503496 0,2.783314 -3.271982,4.503496 -2.647089,0.860091 -5.294178,-1.720183 -1.635991,-2.251748 0,-5.566628"
        transform="translate(512.040528 399.04696)" fill="#e70909" stroke-width="0" />
    <polygon
        points="0,-10.807333 3.176195,-4.371658 10.278384,-3.33965 5.139192,1.669825 6.352391,8.743316 0,5.403667 -6.352391,8.743316 -5.139192,1.669825 -10.278384,-3.33965 -3.176195,-4.371658 0,-10.807333"
        transform="translate(405.686717 242.393052)" fill="#e70909" stroke-width="0" />
</svg>